<svg viewBox="0 0 250 250" xmlns="http://www.w3.org/2000/svg">
  <defs>
    <path d="M28.81 0.38C41.82 0.38 182.46 0.26 193 0.38C203.54 0.51 220.11 12.03 220 27.56C219.89 43.1 220 177.24 220 192.66C220 208.08 208.3 220 191.22 219.95C137.22 219.84 44.2 220.11 29.26 219.95C14.32 219.79 -0.04 206.7 0.12 192.66C0.28 178.62 0.18 137.58 0.18 109.98C0.18 82.71 -0.46 43.08 0.18 28.09C0.81 13.1 15.79 0.38 28.81 0.38Z" id="d3bMzi9PMQ"></path>
    <path d="M31.44 5.19C84.19 5.19 136.98 5.19 189.73 5.19C203.3 5.19 213.22 13.65 215.42 27C215.68 28.4 215.63 29.79 215.63 31.24C215.63 84 215.63 136.75 215.63 189.49C215.63 205.49 204.4 215.69 188.02 215.64C136.24 215.54 84.5 215.49 32.7 215.64C16.33 215.69 4.8 205.59 4.75 189.49C4.8 163.1 4.8 136.69 4.8 110.24C4.8 84.1 4.8 57.9 4.8 31.74C4.8 15.69 15.37 5.19 31.44 5.19Z" id="ada8SuzWW"></path>
    <path d="M191.72 99.69C199.3 106.09 200.35 108.55 199.49 113.36C198.52 118.86 193.38 120.48 187.93 119.45C186.04 119.05 184.77 122.29 184.31 123.78C180.35 136.73 175.59 146.2 167.15 156.86C154.87 172.32 138.8 181.49 119.11 183.15C84.9 186.07 59.93 170.78 42.03 142.59C38.06 136.35 35.25 129.59 33.59 122.37C33.36 121.51 33.42 120.94 32.04 121.17C26.24 121.97 23.02 121.09 21.12 116.28C19.23 111.53 21.28 109.16 25.47 105.89C30.81 101.77 36.49 99.63 42.98 98.88C46.19 98.54 50.88 97.75 54.21 98.61C58.86 99.81 60.97 101.37 61.89 105.89C62.86 110.59 60.11 112.69 56.2 115.55C55.17 116.3 54.54 116.7 55.17 118.25C63.26 136.52 75.37 150.78 95 157.14C118.88 164.88 142.64 154.97 154.12 132.8C157.74 125.81 160.86 119.07 163.22 111.63C163.73 110.02 162.96 108.74 161.18 108.22C156.76 107.02 153.37 104.01 153.24 100.12C153.11 96.23 154.63 93.78 158.99 91.72C162.84 90.05 166.58 90.23 172.52 90.95C178.45 91.66 184.15 93.28 191.72 99.69Z" id="cflU5kGtB"></path>
    <path d="M77.5 44.75C85.94 44.35 93.8 52.14 94.32 60.62C94.95 70.7 87.54 78.66 78.36 78.95C68.14 79.24 59.76 70.41 60.91 61.82C59.76 53.86 67.28 45.21 77.5 44.75Z" id="a5K1CcO4Ro"></path>
    <path d="M135.87 41.14C145 40.95 152.75 48.76 152.8 57.81C152.86 67.09 144.94 75 135.64 74.94C126.69 74.82 119.24 67.49 118.94 59.07C118.5 46.83 127.46 41.32 135.87 41.14Z" id="b3z6RiU6zX"></path>
    <path d="M28.81 0.38C41.82 0.38 182.46 0.26 193 0.38C203.54 0.51 220.11 12.03 220 27.56C219.89 43.1 220 177.24 220 192.66C220 208.08 208.3 220 191.22 219.95C137.22 219.84 44.2 220.11 29.26 219.95C14.32 219.79 -0.04 206.7 0.12 192.66C0.28 178.62 0.18 137.58 0.18 109.98C0.18 82.71 -0.46 43.08 0.18 28.09C0.81 13.1 15.79 0.38 28.81 0.38Z" id="path-1"></path>
    <path d="M31.44 5.19C84.19 5.19 136.98 5.19 189.73 5.19C203.3 5.19 213.22 13.65 215.42 27C215.68 28.4 215.63 29.79 215.63 31.24C215.63 84 215.63 136.75 215.63 189.49C215.63 205.49 204.4 215.69 188.02 215.64C136.24 215.54 84.5 215.49 32.7 215.64C16.33 215.69 4.8 205.59 4.75 189.49C4.8 163.1 4.8 136.69 4.8 110.24C4.8 84.1 4.8 57.9 4.8 31.74C4.8 15.69 15.37 5.19 31.44 5.19Z" id="path-2"></path>
    <path d="M191.72 99.69C199.3 106.09 200.35 108.55 199.49 113.36C198.52 118.86 193.38 120.48 187.93 119.45C186.04 119.05 184.77 122.29 184.31 123.78C180.35 136.73 175.59 146.2 167.15 156.86C154.87 172.32 138.8 181.49 119.11 183.15C84.9 186.07 59.93 170.78 42.03 142.59C38.06 136.35 35.25 129.59 33.59 122.37C33.36 121.51 33.42 120.94 32.04 121.17C26.24 121.97 23.02 121.09 21.12 116.28C19.23 111.53 21.28 109.16 25.47 105.89C30.81 101.77 36.49 99.63 42.98 98.88C46.19 98.54 50.88 97.75 54.21 98.61C58.86 99.81 60.97 101.37 61.89 105.89C62.86 110.59 60.11 112.69 56.2 115.55C55.17 116.3 54.54 116.7 55.17 118.25C63.26 136.52 75.37 150.78 95 157.14C118.88 164.88 142.64 154.97 154.12 132.8C157.74 125.81 160.86 119.07 163.22 111.63C163.73 110.02 162.96 108.74 161.18 108.22C156.76 107.02 153.37 104.01 153.24 100.12C153.11 96.23 154.63 93.78 158.99 91.72C162.84 90.05 166.58 90.23 172.52 90.95C178.45 91.66 184.15 93.28 191.72 99.69Z" id="path-3"></path>
    <path d="M77.5 44.75C85.94 44.35 93.8 52.14 94.32 60.62C94.95 70.7 87.54 78.66 78.36 78.95C68.14 79.24 59.76 70.41 60.91 61.82C59.76 53.86 67.28 45.21 77.5 44.75Z" id="path-4"></path>
    <path d="M135.87 41.14C145 40.95 152.75 48.76 152.8 57.81C152.86 67.09 144.94 75 135.64 74.94C126.69 74.82 119.24 67.49 118.94 59.07C118.5 46.83 127.46 41.32 135.87 41.14Z" id="path-5"></path>
  </defs>
  <path d="M 234.719 59.144 L 187.922 9.18 C 186.294 7.442 183.945 6.448 181.477 6.448 L 63.278 6.448 C 57.802 6.448 53.362 10.604 53.362 15.733 L 53.362 233.941 C 53.362 239.071 57.802 243.228 63.278 243.228 L 226.925 243.228 C 232.403 243.228 236.841 239.071 236.841 233.941 L 236.841 64.435 C 236.841 62.488 236.089 60.606 234.719 59.144 Z M 79.185 213.021 L 79.228 34.984 L 167.511 34.292 L 175.786 62.014 C 175.786 64.58 180.93 67.438 183.67 67.438 L 212.71 67.846 L 212.877 213.284 L 79.185 213.021 Z" style="stroke-miterlimit: 6; stroke-opacity: 0.92; stroke-dashoffset: -17px; stroke-dasharray: 5px; stroke-width: 45px; fill: rgb(68, 138, 255);"></path>
  <path fill="none" stroke-linecap="round" d="M 126.05 159.514 C 154.604 130.428 140.964 81.338 101.496 71.153 C 62.025 60.966 26.335 97.326 37.246 136.598 C 48.045 175.454 96.58 188.459 125.359 160.208 L 184.19 219.041 M 152.699 178.549 L 190.767 216.617 L 181.768 225.616 L 143.7 187.548" style="stroke: rgb(68, 138, 255); stroke-width: 18px;" transform="matrix(-0.330074, 0.943955, -0.943955, -0.330074, 289.562844, 89.531717)"></path>
  <g transform="matrix(0.299051, 0, 0, 0.294685, 219.5784, 115.868538)" style=""></g>
  <g transform="matrix(0.299051, 0, 0, 0.294685, 219.5784, 115.868538)" style=""></g>
  <g transform="matrix(0.299051, 0, 0, 0.294685, 219.5784, 115.868538)" style=""></g>
  <g transform="matrix(0.299051, 0, 0, 0.294685, 219.5784, 115.868538)" style=""></g>
  <g transform="matrix(0.299051, 0, 0, 0.294685, 219.5784, 115.868538)" style=""></g>
  <g transform="matrix(0.299051, 0, 0, 0.294685, 219.5784, 115.868538)" style=""></g>
  <g transform="matrix(0.299051, 0, 0, 0.294685, 219.5784, 115.868538)" style=""></g>
  <g transform="matrix(0.299051, 0, 0, 0.294685, 219.5784, 115.868538)" style=""></g>
  <g transform="matrix(0.299051, 0, 0, 0.294685, 219.5784, 115.868538)" style=""></g>
  <g transform="matrix(0.299051, 0, 0, 0.294685, 219.5784, 115.868538)" style=""></g>
  <g transform="matrix(0.299051, 0, 0, 0.294685, 219.5784, 115.868538)" style=""></g>
  <g transform="matrix(0.299051, 0, 0, 0.294685, 219.5784, 115.868538)" style=""></g>
  <g transform="matrix(0.299051, 0, 0, 0.294685, 219.5784, 115.868538)" style=""></g>
  <g transform="matrix(0.299051, 0, 0, 0.294685, 219.5784, 115.868538)" style=""></g>
  <g transform="matrix(0.299051, 0, 0, 0.294685, 219.5784, 115.868538)" style=""></g>
  <g transform="matrix(0.39507, -0.095119, 0.095119, 0.39507, 90.388832, 99.201065)" style="">
    <g>
      <g>
        <g></g>
      </g>
      <g>
        <g></g>
      </g>
      <g>
        <path d="M191.72 99.69C199.3 106.09 200.35 108.55 199.49 113.36C198.52 118.86 193.38 120.48 187.93 119.45C186.04 119.05 184.77 122.29 184.31 123.78C180.35 136.73 175.59 146.2 167.15 156.86C154.87 172.32 138.8 181.49 119.11 183.15C84.9 186.07 59.93 170.78 42.03 142.59C38.06 136.35 35.25 129.59 33.59 122.37C33.36 121.51 33.42 120.94 32.04 121.17C26.24 121.97 23.02 121.09 21.12 116.28C19.23 111.53 21.28 109.16 25.47 105.89C30.81 101.77 36.49 99.63 42.98 98.88C46.19 98.54 50.88 97.75 54.21 98.61C58.86 99.81 60.97 101.37 61.89 105.89C62.86 110.59 60.11 112.69 56.2 115.55C55.17 116.3 54.54 116.7 55.17 118.25C63.26 136.52 75.37 150.78 95 157.14C118.88 164.88 142.64 154.97 154.12 132.8C157.74 125.81 160.86 119.07 163.22 111.63C163.73 110.02 162.96 108.74 161.18 108.22C156.76 107.02 153.37 104.01 153.24 100.12C153.11 96.23 154.63 93.78 158.99 91.72C162.84 90.05 166.58 90.23 172.52 90.95C178.45 91.66 184.15 93.28 191.72 99.69Z" transform="matrix(1, 0, 0, 1, 0, 0)" opacity="1" fill-opacity="1" style="fill: rgb(68, 138, 255);"></path>
        <g>
          <path d="M191.72 99.69C199.3 106.09 200.35 108.55 199.49 113.36C198.52 118.86 193.38 120.48 187.93 119.45C186.04 119.05 184.77 122.29 184.31 123.78C180.35 136.73 175.59 146.2 167.15 156.86C154.87 172.32 138.8 181.49 119.11 183.15C84.9 186.07 59.93 170.78 42.03 142.59C38.06 136.35 35.25 129.59 33.59 122.37C33.36 121.51 33.42 120.94 32.04 121.17C26.24 121.97 23.02 121.09 21.12 116.28C19.23 111.53 21.28 109.16 25.47 105.89C30.81 101.77 36.49 99.63 42.98 98.88C46.19 98.54 50.88 97.75 54.21 98.61C58.86 99.81 60.97 101.37 61.89 105.89C62.86 110.59 60.11 112.69 56.2 115.55C55.17 116.3 54.54 116.7 55.17 118.25C63.26 136.52 75.37 150.78 95 157.14C118.88 164.88 142.64 154.97 154.12 132.8C157.74 125.81 160.86 119.07 163.22 111.63C163.73 110.02 162.96 108.74 161.18 108.22C156.76 107.02 153.37 104.01 153.24 100.12C153.11 96.23 154.63 93.78 158.99 91.72C162.84 90.05 166.58 90.23 172.52 90.95C178.45 91.66 184.15 93.28 191.72 99.69Z" transform="matrix(1, 0, 0, 1, 0, 0)" opacity="1" fill-opacity="0" stroke="#000000" stroke-width="1" stroke-opacity="0" style="fill: rgb(68, 138, 255);"></path>
        </g>
      </g>
      <g>
        <path d="M77.5 44.75C85.94 44.35 93.8 52.14 94.32 60.62C94.95 70.7 87.54 78.66 78.36 78.95C68.14 79.24 59.76 70.41 60.91 61.82C59.76 53.86 67.28 45.21 77.5 44.75Z" transform="matrix(1, 0, 0, 1, 0, 0)" opacity="1" fill-opacity="1" style="fill: rgb(68, 138, 255);"></path>
        <g>
          <path d="M77.5 44.75C85.94 44.35 93.8 52.14 94.32 60.62C94.95 70.7 87.54 78.66 78.36 78.95C68.14 79.24 59.76 70.41 60.91 61.82C59.76 53.86 67.28 45.21 77.5 44.75Z" transform="matrix(1, 0, 0, 1, 0, 0)" opacity="1" fill-opacity="0" stroke="#000000" stroke-width="1" stroke-opacity="0" style="fill: rgb(68, 138, 255);"></path>
        </g>
      </g>
      <g>
        <path d="M135.87 41.14C145 40.95 152.75 48.76 152.8 57.81C152.86 67.09 144.94 75 135.64 74.94C126.69 74.82 119.24 67.49 118.94 59.07C118.5 46.83 127.46 41.32 135.87 41.14Z" transform="matrix(1, 0, 0, 1, 0, 0)" opacity="1" fill-opacity="1" style="fill: rgb(68, 138, 255);"></path>
        <g>
          <path d="M135.87 41.14C145 40.95 152.75 48.76 152.8 57.81C152.86 67.09 144.94 75 135.64 74.94C126.69 74.82 119.24 67.49 118.94 59.07C118.5 46.83 127.46 41.32 135.87 41.14Z" transform="matrix(1, 0, 0, 1, 0, 0)" opacity="1" fill-opacity="0" stroke="#000000" stroke-width="1" stroke-opacity="0" style="fill: rgb(68, 138, 255);"></path>
        </g>
      </g>
    </g>
  </g>
</svg>